# xmcd
#
# Track frame offsets: 
#        150
#        14505
#        27925
#        41842
#        56200
#        68695
#        82014
#        95657
#        108031
#        121671
#        135829
#        149710
#        162387
#        176597
#        191093
#        202630
#        214510
#
# Disc length: 3051 seconds
#
# Revision: 7
# Processed by: cddbd v1.5.2PL0 Copyright (c) Steve Scherf et al.
# Submitted via: ExactAudioCopy v0.99pb4
#
DISCID=eb0be911
DTITLE=Various Artist - The Early Blues Roots Of Led Zeppelin
DYEAR=2000
DGENRE=Blues
TTITLE0=Memphis Minnie - When The Levee Breaks
TTITLE1=Sonny Boy Williamson - Sugar Mama
TTITLE2=Josh White - Jesus Gonna Make up My Dying Bed
TTITLE3=Blind Willie Johnson - Nobody's Fault But Mine
TTITLE4=Robert Johnson - Traveling Riverside Blues
TTITLE5=Sleepy John Estes - The Girl I Love She Got Long Curly Hair
TTITLE6=Bukka White - Shake 'Em On Down
TTITLE7=Blind Boy Fuller - I Want Some of Your Pie
TTITLE8=Leadbelly - Gallis Pole
TTITLE9=Arthur Crudup - My Mama Don't Allow Me
TTITLE10=Sonny Boy Williamson - My Baby I've Been Your Slave
TTITLE11=Bukka White - Fixin' to Die Blues
TTITLE12=John Lee Hooker - Boogie Chillen'
TTITLE13=Oscar Woods - Lone Wolf Blues
TTITLE14=Sonny Boy Williamson - Got the Bottle up and Gone
TTITLE15=Big Bill Broonzy - Trucking Little Woman
TTITLE16=St. Louis Jimmy Oden - Going Down Slow
EXTD=
EXTT0=
EXTT1=
EXTT2=
EXTT3=
EXTT4=
EXTT5=
EXTT6=
EXTT7=
EXTT8=
EXTT9=
EXTT10=
EXTT11=
EXTT12=
EXTT13=
EXTT14=
EXTT15=
EXTT16=
PLAYORDER=
